<?xml version="1.0" encoding="UTF-8"?>
<svg width="120px" height="124px" viewBox="0 0 120 124" version="1.1" xmlns="http://www.w3.org/2000/svg" xmlns:xlink="http://www.w3.org/1999/xlink">
    <!-- Generator: Sketch 50 (54983) - http://www.bohemiancoding.com/sketch -->
    <title>icon_docs</title>
    <desc>Created with Sketch.</desc>
    <defs></defs>
    <g id="Symbols" stroke="none" stroke-width="1" fill="none" fill-rule="evenodd" stroke-linecap="round" stroke-linejoin="round">
        <g id="icon_docs" transform="translate(1.000000, 1.000000)" stroke="#4F5A60">
            <g>
                <g id="Group-4" stroke-width="2">
                    <polygon id="Stroke-1" points="0 122 86.6 122 86.6 0 0 0"></polygon>
                    <polyline id="Stroke-3" points="86.6 10.2003 117.533 10.2003 117.533 122.0003 86.6 122.0003"></polyline>
                </g>
                <path d="M20.5331,50.8937 L74.3991,50.8937" id="Stroke-5" stroke-width="2"></path>
                <path d="M12.2011,63.1994 L74.3991,63.1994" id="Stroke-6" stroke-width="2"></path>
                <path d="M12.2011,75.504 L74.3991,75.504" id="Stroke-7" stroke-width="2"></path>
                <path d="M12.2011,87.8097 L74.3991,87.8097" id="Stroke-8" stroke-width="2"></path>
                <path d="M86.6,52.8937 L105.399,52.8937" id="Stroke-9" stroke-width="2"></path>
                <path d="M86.6,65.1994 L105.399,65.1994" id="Stroke-10" stroke-width="2"></path>
                <path d="M86.6,77.504 L105.399,77.504" id="Stroke-11" stroke-width="2"></path>
                <path d="M86.6,89.8097 L105.399,89.8097" id="Stroke-12" stroke-width="2"></path>
                <path d="M12.2011,107.5597 L33.7011,107.5597 L12.2011,107.5597 Z" id="Stroke-13"></path>
                <path d="M52.2011,107.5597 L73.7011,107.5597 L52.2011,107.5597 Z" id="Stroke-14"></path>
                <polyline id="Stroke-15" stroke-width="2" points="32.2997 26.7267 43.2997 15.7267 54.2997 26.7267"></polyline>
                <path d="M37.7904,21.2267 L37.7904,32.5607" id="Stroke-16" stroke-width="2"></path>
                <path d="M48.7772,21.2267 L48.7772,32.5607" id="Stroke-17" stroke-width="2"></path>
            </g>
        </g>
    </g>
</svg>