<?xml version="1.0" encoding="UTF-8"?>
<svg width="221px" height="44px" viewBox="0 0 221 44" version="1.1" xmlns="http://www.w3.org/2000/svg" xmlns:xlink="http://www.w3.org/1999/xlink">
    <!-- Generator: Sketch 50 (54983) - http://www.bohemiancoding.com/sketch -->
    <title>logo / main</title>
    <desc>Created with Sketch.</desc>
    <defs></defs>
    <g id="logo-/-main" stroke="none" stroke-width="1" fill="none" fill-rule="evenodd">
        <g id="logo">
            <path d="M8.1952,27.4912 C6.0112,27.4912 4.2016,26.7632 2.7664,25.328 C1.3312,23.872 0.624,22.0624 0.624,19.92 C0.624,17.7776 1.3312,15.968 2.7664,14.5328 C4.2016,13.0768 6.0112,12.3488 8.1952,12.3488 C10.7952,12.3488 13.1664,13.6384 14.4352,15.7184 L11.5648,17.3824 C10.92,16.2384 9.672,15.5936 8.1952,15.5936 C6.9056,15.5936 5.8656,15.9888 5.096,16.7792 C4.3264,17.5696 3.952,18.6096 3.952,19.92 C3.952,21.2304 4.3264,22.2704 5.096,23.0608 C5.8656,23.8512 6.9056,24.2464 8.1952,24.2464 C9.672,24.2464 10.9616,23.56 11.5648,22.4576 L14.4352,24.1216 C13.1872,26.2016 10.8368,27.4912 8.1952,27.4912 Z M15.1632,16.8 L24.5232,16.8 L24.5232,19.7952 L21.424,19.7952 L21.424,27.2 L18.304,27.2 L18.304,19.7952 L15.1632,19.7952 L15.1632,16.8 Z M32.0944,16.5088 C33.4672,16.5088 34.632,17.0496 35.6096,18.1104 C36.5872,19.1712 37.0656,20.4608 37.0656,22 C37.0656,23.5392 36.5872,24.8496 35.6096,25.9104 C34.632,26.9712 33.4672,27.4912 32.0944,27.4912 C30.7632,27.4912 29.7232,27.0752 28.9952,26.2224 L28.9952,31.36 L25.8752,31.36 L25.8752,16.8 L28.9952,16.8 L28.9952,17.7776 C29.7232,16.9248 30.7632,16.5088 32.0944,16.5088 Z M29.6816,23.8512 C30.16,24.3088 30.7424,24.5376 31.4704,24.5376 C32.1984,24.5376 32.7808,24.3088 33.2384,23.8512 C33.7168,23.3936 33.9456,22.7696 33.9456,22 C33.9456,21.2304 33.7168,20.6064 33.2384,20.1488 C32.7808,19.6912 32.1984,19.4624 31.4704,19.4624 C30.7424,19.4624 30.16,19.6912 29.6816,20.1488 C29.224,20.6064 28.9952,21.2304 28.9952,22 C28.9952,22.7696 29.224,23.3936 29.6816,23.8512 Z M47.736,25.9104 C46.6752,26.9712 45.3648,27.4912 43.8256,27.4912 C42.2864,27.4912 40.976,26.9712 39.9152,25.9104 C38.8544,24.8496 38.3136,23.5392 38.3136,22 C38.3136,20.4608 38.8544,19.1712 39.9152,18.1104 C40.976,17.0496 42.2864,16.5088 43.8256,16.5088 C45.3648,16.5088 46.6752,17.0496 47.736,18.1104 C48.7968,19.1712 49.3376,20.4608 49.3376,22 C49.3376,23.5392 48.7968,24.8496 47.736,25.9104 Z M42.12,23.768 C42.5776,24.2256 43.1392,24.4544 43.8256,24.4544 C44.512,24.4544 45.0736,24.2256 45.5312,23.768 C45.9888,23.3104 46.2176,22.728 46.2176,22 C46.2176,21.272 45.9888,20.6896 45.5312,20.232 C45.0736,19.7744 44.512,19.5456 43.8256,19.5456 C43.1392,19.5456 42.5776,19.7744 42.12,20.232 C41.6624,20.6896 41.4336,21.272 41.4336,22 C41.4336,22.728 41.6624,23.3104 42.12,23.768 Z M59.1136,15.5728 L52.8736,15.5728 L52.8736,12.8688 L59.1136,12.8688 L59.1136,15.5728 Z M54.1424,22 L58.5936,16.8 L60.8816,16.8 L60.8816,27.2 L57.8448,27.2 L57.8448,22 L53.3936,27.2 L51.1056,27.2 L51.1056,16.8 L54.1424,16.8 L54.1424,22 Z M62.2336,12.64 L73.0496,12.64 L73.0496,15.8432 L69.3056,15.8432 L69.3056,27.2 L65.9776,27.2 L65.9776,15.8432 L62.2336,15.8432 L62.2336,12.64 Z M82.7008,23.248 L75.3168,23.248 C75.6704,24.2256 76.5024,24.704 77.8128,24.704 C78.6656,24.704 79.3312,24.4336 79.8096,23.9136 L82.3056,25.3488 C81.2864,26.784 79.768,27.4912 77.7712,27.4912 C76.024,27.4912 74.6304,26.9712 73.5696,25.9312 C72.5296,24.8912 72.0096,23.5808 72.0096,22 C72.0096,20.44 72.5296,19.1296 73.5488,18.0896 C74.5888,17.0288 75.92,16.5088 77.5424,16.5088 C79.0608,16.5088 80.3088,17.0288 81.3072,18.0896 C82.3264,19.1296 82.8256,20.44 82.8256,22 C82.8256,22.4368 82.784,22.8528 82.7008,23.248 Z M75.2544,20.9184 L79.7264,20.9184 C79.4144,19.816 78.6864,19.2752 77.5216,19.2752 C76.3152,19.2752 75.5664,19.816 75.2544,20.9184 Z M90.8128,16.5088 C92.1856,16.5088 93.3504,17.0496 94.328,18.1104 C95.3056,19.1712 95.784,20.4608 95.784,22 C95.784,23.5392 95.3056,24.8496 94.328,25.9104 C93.3504,26.9712 92.1856,27.4912 90.8128,27.4912 C89.4816,27.4912 88.4416,27.0752 87.7136,26.2224 L87.7136,31.36 L84.5936,31.36 L84.5936,16.8 L87.7136,16.8 L87.7136,17.7776 C88.4416,16.9248 89.4816,16.5088 90.8128,16.5088 Z M88.4,23.8512 C88.8784,24.3088 89.4608,24.5376 90.1888,24.5376 C90.9168,24.5376 91.4992,24.3088 91.9568,23.8512 C92.4352,23.3936 92.664,22.7696 92.664,22 C92.664,21.2304 92.4352,20.6064 91.9568,20.1488 C91.4992,19.6912 90.9168,19.4624 90.1888,19.4624 C89.4608,19.4624 88.8784,19.6912 88.4,20.1488 C87.9424,20.6064 87.7136,21.2304 87.7136,22 C87.7136,22.7696 87.9424,23.3936 88.4,23.8512 Z M100.672,19.92 L102.4192,19.92 C104.9152,19.92 106.496,21.376 106.496,23.56 C106.496,25.744 104.9152,27.2 102.4192,27.2 L97.552,27.2 L97.552,16.8 L100.672,16.8 L100.672,19.92 Z M100.672,24.496 L102.44,24.496 C103.7712,24.6208 103.7712,22.4992 102.44,22.624 L100.672,22.624 L100.672,24.496 Z M118.1232,23.248 L110.7392,23.248 C111.0928,24.2256 111.9248,24.704 113.2352,24.704 C114.088,24.704 114.7536,24.4336 115.232,23.9136 L117.728,25.3488 C116.7088,26.784 115.1904,27.4912 113.1936,27.4912 C111.4464,27.4912 110.0528,26.9712 108.992,25.9312 C107.952,24.8912 107.432,23.5808 107.432,22 C107.432,20.44 107.952,19.1296 108.9712,18.0896 C110.0112,17.0288 111.3424,16.5088 112.9648,16.5088 C114.4832,16.5088 115.7312,17.0288 116.7296,18.0896 C117.7488,19.1296 118.248,20.44 118.248,22 C118.248,22.4368 118.2064,22.8528 118.1232,23.248 Z M110.6768,20.9184 L115.1488,20.9184 C114.8368,19.816 114.1088,19.2752 112.944,19.2752 C111.7376,19.2752 110.9888,19.816 110.6768,20.9184 Z M126.2352,16.5088 C127.608,16.5088 128.7728,17.0496 129.7504,18.1104 C130.728,19.1712 131.2064,20.4608 131.2064,22 C131.2064,23.5392 130.728,24.8496 129.7504,25.9104 C128.7728,26.9712 127.608,27.4912 126.2352,27.4912 C124.904,27.4912 123.864,27.0752 123.136,26.2224 L123.136,31.36 L120.016,31.36 L120.016,16.8 L123.136,16.8 L123.136,17.7776 C123.864,16.9248 124.904,16.5088 126.2352,16.5088 Z M123.8224,23.8512 C124.3008,24.3088 124.8832,24.5376 125.6112,24.5376 C126.3392,24.5376 126.9216,24.3088 127.3792,23.8512 C127.8576,23.3936 128.0864,22.7696 128.0864,22 C128.0864,21.2304 127.8576,20.6064 127.3792,20.1488 C126.9216,19.6912 126.3392,19.4624 125.6112,19.4624 C124.8832,19.4624 124.3008,19.6912 123.8224,20.1488 C123.3648,20.6064 123.136,21.2304 123.136,22 C123.136,22.7696 123.3648,23.3936 123.8224,23.8512 Z" id="СтройТерьер" fill="#4F5A60"></path>
            <path d="M162.14,11.56 L165.7976,11.56 L165.7976,16.6 L165.128,16.6 L165.128,12.1936 L162.8096,12.1936 L162.8096,16.6 L162.14,16.6 L162.14,11.56 Z M168.8,12.9064 C169.304,12.9064 169.736,13.0936 170.0888,13.4608 C170.4416,13.828 170.6216,14.2744 170.6216,14.8 C170.6216,15.3256 170.4416,15.7792 170.0888,16.1464 C169.736,16.5136 169.304,16.6936 168.8,16.6936 C168.2024,16.6936 167.7488,16.456 167.4392,15.9808 L167.4392,18.04 L166.8128,18.04 L166.8128,13 L167.4392,13 L167.4392,13.6192 C167.7488,13.144 168.2024,12.9064 168.8,12.9064 Z M168.7208,16.0888 C169.0808,16.0888 169.3832,15.9664 169.628,15.7216 C169.8728,15.4696 169.9952,15.1672 169.9952,14.8 C169.9952,14.4328 169.8728,14.1304 169.628,13.8856 C169.3832,13.6336 169.0808,13.5112 168.7208,13.5112 C168.3536,13.5112 168.0512,13.6336 167.8064,13.8856 C167.5616,14.1304 167.4392,14.4328 167.4392,14.8 C167.4392,15.1672 167.5616,15.4696 167.8064,15.7216 C168.0512,15.9664 168.3536,16.0888 168.7208,16.0888 Z M174.4088,16.1464 C174.0416,16.5136 173.588,16.6936 173.0624,16.6936 C172.5368,16.6936 172.0832,16.5136 171.716,16.1464 C171.3488,15.7792 171.1688,15.3328 171.1688,14.8 C171.1688,14.2672 171.3488,13.8208 171.716,13.4536 C172.0832,13.0864 172.5368,12.9064 173.0624,12.9064 C173.588,12.9064 174.0416,13.0864 174.4088,13.4536 C174.776,13.8208 174.9632,14.2672 174.9632,14.8 C174.9632,15.3328 174.776,15.7792 174.4088,16.1464 Z M173.0624,16.0816 C173.4224,16.0816 173.7248,15.9592 173.9696,15.7144 C174.2144,15.4696 174.3368,15.1672 174.3368,14.8 C174.3368,14.4328 174.2144,14.1304 173.9696,13.8856 C173.7248,13.6408 173.4224,13.5184 173.0624,13.5184 C172.7096,13.5184 172.4072,13.6408 172.1624,13.8856 C171.9176,14.1304 171.7952,14.4328 171.7952,14.8 C171.7952,15.1672 171.9176,15.4696 172.1624,15.7144 C172.4072,15.9592 172.7096,16.0816 173.0624,16.0816 Z M179.1608,15.088 L176.144,15.088 C176.2664,15.7288 176.7632,16.1032 177.4472,16.1032 C177.9224,16.1032 178.268,15.9304 178.484,15.5776 L179.0168,15.88 C178.664,16.42 178.1384,16.6936 177.4328,16.6936 C176.864,16.6936 176.396,16.5136 176.036,16.1608 C175.6832,15.8008 175.5032,15.3472 175.5032,14.8 C175.5032,14.26 175.676,13.8064 176.0288,13.4464 C176.3816,13.0864 176.8352,12.9064 177.3896,12.9064 C177.9152,12.9064 178.3472,13.0936 178.6784,13.468 C179.0168,13.8352 179.1824,14.2816 179.1824,14.8072 C179.1824,14.9008 179.1752,14.9944 179.1608,15.088 Z M177.3896,13.4968 C176.72,13.4968 176.252,13.9072 176.144,14.5408 L178.5488,14.5408 C178.4408,13.8568 177.9656,13.4968 177.3896,13.4968 Z M181.1696,14.7424 L182.948,16.6 L182.1704,16.6 L180.5288,14.8936 L180.5288,16.6 L179.9024,16.6 L179.9024,13 L180.5288,13 L180.5288,14.5912 L182.084,13 L182.8904,13 L181.1696,14.7424 Z M183.128,13 L186.2096,13 L186.2096,13.6048 L184.9856,13.6048 L184.9856,16.6 L184.3592,16.6 L184.3592,13.6048 L183.128,13.6048 L183.128,13 Z M187.376,15.5272 L189.3704,13 L189.8744,13 L189.8744,16.6 L189.2552,16.6 L189.2552,14.0728 L187.2608,16.6 L186.7568,16.6 L186.7568,13 L187.376,13 L187.376,15.5272 Z M192.812,12.9064 C193.316,12.9064 193.748,13.0936 194.1008,13.4608 C194.4536,13.828 194.6336,14.2744 194.6336,14.8 C194.6336,15.3256 194.4536,15.7792 194.1008,16.1464 C193.748,16.5136 193.316,16.6936 192.812,16.6936 C192.2144,16.6936 191.7608,16.456 191.4512,15.9808 L191.4512,18.04 L190.8248,18.04 L190.8248,13 L191.4512,13 L191.4512,13.6192 C191.7608,13.144 192.2144,12.9064 192.812,12.9064 Z M192.7328,16.0888 C193.0928,16.0888 193.3952,15.9664 193.64,15.7216 C193.8848,15.4696 194.0072,15.1672 194.0072,14.8 C194.0072,14.4328 193.8848,14.1304 193.64,13.8856 C193.3952,13.6336 193.0928,13.5112 192.7328,13.5112 C192.3656,13.5112 192.0632,13.6336 191.8184,13.8856 C191.5736,14.1304 191.4512,14.4328 191.4512,14.8 C191.4512,15.1672 191.5736,15.4696 191.8184,15.7216 C192.0632,15.9664 192.3656,16.0888 192.7328,16.0888 Z M198.4208,16.1464 C198.0536,16.5136 197.6,16.6936 197.0744,16.6936 C196.5488,16.6936 196.0952,16.5136 195.728,16.1464 C195.3608,15.7792 195.1808,15.3328 195.1808,14.8 C195.1808,14.2672 195.3608,13.8208 195.728,13.4536 C196.0952,13.0864 196.5488,12.9064 197.0744,12.9064 C197.6,12.9064 198.0536,13.0864 198.4208,13.4536 C198.788,13.8208 198.9752,14.2672 198.9752,14.8 C198.9752,15.3328 198.788,15.7792 198.4208,16.1464 Z M197.0744,16.0816 C197.4344,16.0816 197.7368,15.9592 197.9816,15.7144 C198.2264,15.4696 198.3488,15.1672 198.3488,14.8 C198.3488,14.4328 198.2264,14.1304 197.9816,13.8856 C197.7368,13.6408 197.4344,13.5184 197.0744,13.5184 C196.7216,13.5184 196.4192,13.6408 196.1744,13.8856 C195.9296,14.1304 195.8072,14.4328 195.8072,14.8 C195.8072,15.1672 195.9296,15.4696 196.1744,15.7144 C196.4192,15.9592 196.7216,16.0816 197.0744,16.0816 Z M202.1144,14.7496 C202.4816,14.9008 202.6688,15.1816 202.6688,15.5848 C202.6688,16.1824 202.2584,16.6 201.5168,16.6 L199.7168,16.6 L199.7168,13 L201.3728,13 C202.0928,13 202.5032,13.396 202.5032,13.9792 C202.5032,14.3248 202.3736,14.584 202.1144,14.7496 Z M201.344,13.5616 L200.3288,13.5616 L200.3288,14.5048 L201.344,14.5048 C201.7112,14.5048 201.8912,14.3464 201.8912,14.0224 C201.8912,13.7128 201.7112,13.5616 201.344,13.5616 Z M200.3288,16.0312 L201.4808,16.0312 C201.848,16.0312 202.0496,15.8512 202.0496,15.5344 C202.0496,15.2392 201.848,15.0592 201.4808,15.0592 L200.3288,15.0592 L200.3288,16.0312 Z M206.3264,13.6192 L206.3264,13 L206.9528,13 L206.9528,16.6 L206.3264,16.6 L206.3264,15.9808 C206.0168,16.456 205.5632,16.6936 204.9656,16.6936 C204.4616,16.6936 204.0296,16.5136 203.6768,16.1464 C203.324,15.7792 203.144,15.3256 203.144,14.8 C203.144,14.2744 203.324,13.828 203.6768,13.4608 C204.0296,13.0936 204.4616,12.9064 204.9656,12.9064 C205.5632,12.9064 206.0168,13.144 206.3264,13.6192 Z M205.0448,16.0888 C205.412,16.0888 205.7144,15.9664 205.9592,15.7216 C206.204,15.4696 206.3264,15.1672 206.3264,14.8 C206.3264,14.4328 206.204,14.1304 205.9592,13.8856 C205.7144,13.6336 205.412,13.5112 205.0448,13.5112 C204.6848,13.5112 204.3824,13.6336 204.1376,13.8856 C203.8928,14.1304 203.7704,14.4328 203.7704,14.8 C203.7704,15.1672 203.8928,15.4696 204.1376,15.7216 C204.3824,15.9664 204.6848,16.0888 205.0448,16.0888 Z M210.3944,14.4976 L210.3944,13 L211.0208,13 L211.0208,16.6 L210.3944,16.6 L210.3944,15.0952 L208.5296,15.0952 L208.5296,16.6 L207.9032,16.6 L207.9032,13 L208.5296,13 L208.5296,14.4976 L210.3944,14.4976 Z M212.5904,15.5272 L214.5848,13 L215.0888,13 L215.0888,16.6 L214.4696,16.6 L214.4696,14.0728 L212.4752,16.6 L211.9712,16.6 L211.9712,13 L212.5904,13 L212.5904,15.5272 Z M219.4952,15.088 L216.4784,15.088 C216.6008,15.7288 217.0976,16.1032 217.7816,16.1032 C218.2568,16.1032 218.6024,15.9304 218.8184,15.5776 L219.3512,15.88 C218.9984,16.42 218.4728,16.6936 217.7672,16.6936 C217.1984,16.6936 216.7304,16.5136 216.3704,16.1608 C216.0176,15.8008 215.8376,15.3472 215.8376,14.8 C215.8376,14.26 216.0104,13.8064 216.3632,13.4464 C216.716,13.0864 217.1696,12.9064 217.724,12.9064 C218.2496,12.9064 218.6816,13.0936 219.0128,13.468 C219.3512,13.8352 219.5168,14.2816 219.5168,14.8072 C219.5168,14.9008 219.5096,14.9944 219.4952,15.088 Z M217.724,13.4968 C217.0544,13.4968 216.5864,13.9072 216.4784,14.5408 L218.8832,14.5408 C218.7752,13.8568 218.3,13.4968 217.724,13.4968 Z M163.7672,25.4936 C163.2272,25.4936 162.7736,25.3136 162.4136,24.9536 C162.0536,24.5864 161.8736,24.14 161.8736,23.6 C161.8736,23.06 162.0536,22.6136 162.4136,22.2536 C162.7736,21.8864 163.2272,21.7064 163.7672,21.7064 C164.48,21.7064 165.0776,22.0736 165.3584,22.6496 L164.8328,22.952 C164.6528,22.5704 164.2496,22.3184 163.7672,22.3184 C163.4072,22.3184 163.1048,22.4408 162.86,22.6856 C162.6224,22.9304 162.5,23.2328 162.5,23.6 C162.5,23.96 162.6224,24.2624 162.86,24.5072 C163.1048,24.752 163.4072,24.8744 163.7672,24.8744 C164.2496,24.8744 164.6528,24.6296 164.8544,24.248 L165.3872,24.5576 C165.0776,25.1264 164.4656,25.4936 163.7672,25.4936 Z M165.5456,21.8 L168.6272,21.8 L168.6272,22.4048 L167.4032,22.4048 L167.4032,25.4 L166.7768,25.4 L166.7768,22.4048 L165.5456,22.4048 L165.5456,21.8 Z M171.1616,21.7064 C171.6656,21.7064 172.0976,21.8936 172.4504,22.2608 C172.8032,22.628 172.9832,23.0744 172.9832,23.6 C172.9832,24.1256 172.8032,24.5792 172.4504,24.9464 C172.0976,25.3136 171.6656,25.4936 171.1616,25.4936 C170.564,25.4936 170.1104,25.256 169.8008,24.7808 L169.8008,26.84 L169.1744,26.84 L169.1744,21.8 L169.8008,21.8 L169.8008,22.4192 C170.1104,21.944 170.564,21.7064 171.1616,21.7064 Z M171.0824,24.8888 C171.4424,24.8888 171.7448,24.7664 171.9896,24.5216 C172.2344,24.2696 172.3568,23.9672 172.3568,23.6 C172.3568,23.2328 172.2344,22.9304 171.9896,22.6856 C171.7448,22.4336 171.4424,22.3112 171.0824,22.3112 C170.7152,22.3112 170.4128,22.4336 170.168,22.6856 C169.9232,22.9304 169.8008,23.2328 169.8008,23.6 C169.8008,23.9672 169.9232,24.2696 170.168,24.5216 C170.4128,24.7664 170.7152,24.8888 171.0824,24.8888 Z M176.7704,24.9464 C176.4032,25.3136 175.9496,25.4936 175.424,25.4936 C174.8984,25.4936 174.4448,25.3136 174.0776,24.9464 C173.7104,24.5792 173.5304,24.1328 173.5304,23.6 C173.5304,23.0672 173.7104,22.6208 174.0776,22.2536 C174.4448,21.8864 174.8984,21.7064 175.424,21.7064 C175.9496,21.7064 176.4032,21.8864 176.7704,22.2536 C177.1376,22.6208 177.3248,23.0672 177.3248,23.6 C177.3248,24.1328 177.1376,24.5792 176.7704,24.9464 Z M175.424,24.8816 C175.784,24.8816 176.0864,24.7592 176.3312,24.5144 C176.576,24.2696 176.6984,23.9672 176.6984,23.6 C176.6984,23.2328 176.576,22.9304 176.3312,22.6856 C176.0864,22.4408 175.784,22.3184 175.424,22.3184 C175.0712,22.3184 174.7688,22.4408 174.524,22.6856 C174.2792,22.9304 174.1568,23.2328 174.1568,23.6 C174.1568,23.9672 174.2792,24.2696 174.524,24.5144 C174.7688,24.7592 175.0712,24.8816 175.424,24.8816 Z M178.6856,24.3272 L180.68,21.8 L181.184,21.8 L181.184,25.4 L180.5648,25.4 L180.5648,22.8728 L178.5704,25.4 L178.0664,25.4 L178.0664,21.8 L178.6856,21.8 L178.6856,24.3272 Z M181.7312,21.8 L184.8128,21.8 L184.8128,22.4048 L183.5888,22.4048 L183.5888,25.4 L182.9624,25.4 L182.9624,22.4048 L181.7312,22.4048 L181.7312,21.8 Z M188.672,23.888 L185.6552,23.888 C185.7776,24.5288 186.2744,24.9032 186.9584,24.9032 C187.4336,24.9032 187.7792,24.7304 187.9952,24.3776 L188.528,24.68 C188.1752,25.22 187.6496,25.4936 186.944,25.4936 C186.3752,25.4936 185.9072,25.3136 185.5472,24.9608 C185.1944,24.6008 185.0144,24.1472 185.0144,23.6 C185.0144,23.06 185.1872,22.6064 185.54,22.2464 C185.8928,21.8864 186.3464,21.7064 186.9008,21.7064 C187.4264,21.7064 187.8584,21.8936 188.1896,22.268 C188.528,22.6352 188.6936,23.0816 188.6936,23.6072 C188.6936,23.7008 188.6864,23.7944 188.672,23.888 Z M186.9008,22.2968 C186.2312,22.2968 185.7632,22.7072 185.6552,23.3408 L188.06,23.3408 C187.952,22.6568 187.4768,22.2968 186.9008,22.2968 Z M189.6008,21.8 L192.272,21.8 L192.272,25.4 L191.6456,25.4 L191.6456,22.4048 L190.2272,22.4048 L190.2272,23.8736 C190.2272,25.0544 189.7304,25.4792 188.8664,25.4 L188.8664,24.8096 C189.356,24.8744 189.6008,24.6296 189.6008,23.8592 L189.6008,21.8 Z M193.8488,23.096 L194.7416,23.096 C195.1016,23.096 195.3968,23.204 195.6344,23.42 C195.872,23.6288 195.9944,23.9096 195.9944,24.248 C195.9944,24.5864 195.872,24.8672 195.6344,25.0832 C195.3968,25.292 195.1016,25.4 194.7416,25.4 L193.2224,25.4 L193.2224,21.8 L193.8488,21.8 L193.8488,23.096 Z M193.8488,24.8168 L194.7416,24.8168 C195.0944,24.8168 195.3752,24.5936 195.3752,24.248 C195.3752,23.9024 195.0944,23.672 194.7416,23.672 L193.8488,23.672 L193.8488,24.8168 Z M198.3272,25.4936 C197.7872,25.4936 197.3336,25.3136 196.9736,24.9536 C196.6136,24.5864 196.4336,24.14 196.4336,23.6 C196.4336,23.06 196.6136,22.6136 196.9736,22.2536 C197.3336,21.8864 197.7872,21.7064 198.3272,21.7064 C199.04,21.7064 199.6376,22.0736 199.9184,22.6496 L199.3928,22.952 C199.2128,22.5704 198.8096,22.3184 198.3272,22.3184 C197.9672,22.3184 197.6648,22.4408 197.42,22.6856 C197.1824,22.9304 197.06,23.2328 197.06,23.6 C197.06,23.96 197.1824,24.2624 197.42,24.5072 C197.6648,24.752 197.9672,24.8744 198.3272,24.8744 C198.8096,24.8744 199.2128,24.6296 199.4144,24.248 L199.9472,24.5576 C199.6376,25.1264 199.0256,25.4936 198.3272,25.4936 Z M200.1056,21.8 L203.1872,21.8 L203.1872,22.4048 L201.9632,22.4048 L201.9632,25.4 L201.3368,25.4 L201.3368,22.4048 L200.1056,22.4048 L200.1056,21.8 Z M206.132,23.5496 C206.4992,23.7008 206.6864,23.9816 206.6864,24.3848 C206.6864,24.9824 206.276,25.4 205.5344,25.4 L203.7344,25.4 L203.7344,21.8 L205.3904,21.8 C206.1104,21.8 206.5208,22.196 206.5208,22.7792 C206.5208,23.1248 206.3912,23.384 206.132,23.5496 Z M205.3616,22.3616 L204.3464,22.3616 L204.3464,23.3048 L205.3616,23.3048 C205.7288,23.3048 205.9088,23.1464 205.9088,22.8224 C205.9088,22.5128 205.7288,22.3616 205.3616,22.3616 Z M204.3464,24.8312 L205.4984,24.8312 C205.8656,24.8312 206.0672,24.6512 206.0672,24.3344 C206.0672,24.0392 205.8656,23.8592 205.4984,23.8592 L204.3464,23.8592 L204.3464,24.8312 Z M210.4016,24.9464 C210.0344,25.3136 209.5808,25.4936 209.0552,25.4936 C208.5296,25.4936 208.076,25.3136 207.7088,24.9464 C207.3416,24.5792 207.1616,24.1328 207.1616,23.6 C207.1616,23.0672 207.3416,22.6208 207.7088,22.2536 C208.076,21.8864 208.5296,21.7064 209.0552,21.7064 C209.5808,21.7064 210.0344,21.8864 210.4016,22.2536 C210.7688,22.6208 210.956,23.0672 210.956,23.6 C210.956,24.1328 210.7688,24.5792 210.4016,24.9464 Z M209.0552,24.8816 C209.4152,24.8816 209.7176,24.7592 209.9624,24.5144 C210.2072,24.2696 210.3296,23.9672 210.3296,23.6 C210.3296,23.2328 210.2072,22.9304 209.9624,22.6856 C209.7176,22.4408 209.4152,22.3184 209.0552,22.3184 C208.7024,22.3184 208.4,22.4408 208.1552,22.6856 C207.9104,22.9304 207.788,23.2328 207.788,23.6 C207.788,23.9672 207.9104,24.2696 208.1552,24.5144 C208.4,24.7592 208.7024,24.8816 209.0552,24.8816 Z M162.6944,33.1272 L164.6888,30.6 L165.1928,30.6 L165.1928,34.2 L164.5736,34.2 L164.5736,31.6728 L162.5792,34.2 L162.0752,34.2 L162.0752,30.6 L162.6944,30.6 L162.6944,33.1272 Z M169.9304,30.5064 C170.4344,30.5064 170.8664,30.6936 171.2192,31.0608 C171.572,31.428 171.752,31.8744 171.752,32.4 C171.752,32.9256 171.572,33.3792 171.2192,33.7464 C170.8664,34.1136 170.4344,34.2936 169.9304,34.2936 C169.3328,34.2936 168.8792,34.056 168.5696,33.5808 L168.5696,35.64 L167.9432,35.64 L167.9432,30.6 L168.5696,30.6 L168.5696,31.2192 C168.8792,30.744 169.3328,30.5064 169.9304,30.5064 Z M169.8512,33.6888 C170.2112,33.6888 170.5136,33.5664 170.7584,33.3216 C171.0032,33.0696 171.1256,32.7672 171.1256,32.4 C171.1256,32.0328 171.0032,31.7304 170.7584,31.4856 C170.5136,31.2336 170.2112,31.1112 169.8512,31.1112 C169.484,31.1112 169.1816,31.2336 168.9368,31.4856 C168.692,31.7304 168.5696,32.0328 168.5696,32.4 C168.5696,32.7672 168.692,33.0696 168.9368,33.3216 C169.1816,33.5664 169.484,33.6888 169.8512,33.6888 Z M175.9568,32.688 L172.94,32.688 C173.0624,33.3288 173.5592,33.7032 174.2432,33.7032 C174.7184,33.7032 175.064,33.5304 175.28,33.1776 L175.8128,33.48 C175.46,34.02 174.9344,34.2936 174.2288,34.2936 C173.66,34.2936 173.192,34.1136 172.832,33.7608 C172.4792,33.4008 172.2992,32.9472 172.2992,32.4 C172.2992,31.86 172.472,31.4064 172.8248,31.0464 C173.1776,30.6864 173.6312,30.5064 174.1856,30.5064 C174.7112,30.5064 175.1432,30.6936 175.4744,31.068 C175.8128,31.4352 175.9784,31.8816 175.9784,32.4072 C175.9784,32.5008 175.9712,32.5944 175.9568,32.688 Z M174.1856,31.0968 C173.516,31.0968 173.048,31.5072 172.94,32.1408 L175.3448,32.1408 C175.2368,31.4568 174.7616,31.0968 174.1856,31.0968 Z M179.6288,30.6 L180.2984,30.6 L180.2984,34.2 L179.6864,34.2 L179.6864,31.5864 L178.5416,33.4296 L178.4624,33.4296 L177.3176,31.5864 L177.3176,34.2 L176.6984,34.2 L176.6984,30.6 L177.368,30.6 L178.4984,32.4216 L179.6288,30.6 Z M184.2944,33.7464 C183.9272,34.1136 183.4736,34.2936 182.948,34.2936 C182.4224,34.2936 181.9688,34.1136 181.6016,33.7464 C181.2344,33.3792 181.0544,32.9328 181.0544,32.4 C181.0544,31.8672 181.2344,31.4208 181.6016,31.0536 C181.9688,30.6864 182.4224,30.5064 182.948,30.5064 C183.4736,30.5064 183.9272,30.6864 184.2944,31.0536 C184.6616,31.4208 184.8488,31.8672 184.8488,32.4 C184.8488,32.9328 184.6616,33.3792 184.2944,33.7464 Z M182.948,33.6816 C183.308,33.6816 183.6104,33.5592 183.8552,33.3144 C184.1,33.0696 184.2224,32.7672 184.2224,32.4 C184.2224,32.0328 184.1,31.7304 183.8552,31.4856 C183.6104,31.2408 183.308,31.1184 182.948,31.1184 C182.5952,31.1184 182.2928,31.2408 182.048,31.4856 C181.8032,31.7304 181.6808,32.0328 181.6808,32.4 C181.6808,32.7672 181.8032,33.0696 182.048,33.3144 C182.2928,33.5592 182.5952,33.6816 182.948,33.6816 Z M188.0816,32.0976 L188.0816,30.6 L188.708,30.6 L188.708,34.2 L188.0816,34.2 L188.0816,32.6952 L186.2168,32.6952 L186.2168,34.2 L185.5904,34.2 L185.5904,30.6 L186.2168,30.6 L186.2168,32.0976 L188.0816,32.0976 Z M189.2552,30.6 L192.3368,30.6 L192.3368,31.2048 L191.1128,31.2048 L191.1128,34.2 L190.4864,34.2 L190.4864,31.2048 L189.2552,31.2048 L189.2552,30.6 Z" id="Проектирование-строи" fill="#4F5A60"></path>
            <path d="M146.8,0.4 L146.8,43.6" id="Line-3" stroke="#4F5A60" stroke-width="0.8" stroke-linecap="square"></path>
        </g>
    </g>
</svg>