<?xml version="1.0" encoding="UTF-8"?>
<svg width="984px" height="909px" viewBox="0 0 984 909" version="1.1" xmlns="http://www.w3.org/2000/svg" xmlns:xlink="http://www.w3.org/1999/xlink">
    <!-- Generator: Sketch 50 (54983) - http://www.bohemiancoding.com/sketch -->
    <title>map_bel</title>
    <desc>Created with Sketch.</desc>
    <defs></defs>
    <g id="Symbols" stroke="none" stroke-width="1" fill="none" fill-rule="evenodd">
        <g id="map_bel">
            <g>
                <path d="M511.127242,74.9942698 C512.457504,74.5371873 513.577724,73.775383 514.347875,72.7850375 C515.118026,71.794692 515.608122,70.4234444 515.678136,68.8998359 C515.818164,67.3762275 515.608122,65.7002582 515.258054,64.1004693 C514.907985,62.4244999 514.347875,60.8247111 513.717751,59.2249222 C512.457504,56.0253444 510.847187,52.901947 508.956816,49.9309105 C508.46672,49.1691063 508.046637,48.4834825 507.556541,47.7216782 L506.856403,46.6551523 C506.576348,46.2742502 506.296293,45.8171677 506.086252,45.3600851 C505.596156,44.44592 505.176073,43.3793941 505.036046,42.1605073 C504.896018,40.9416206 505.176073,39.6465534 505.666169,38.6562079 C506.716376,36.5993364 508.116651,35.3804497 509.376898,34.1615629 C510.637146,32.9426761 511.897394,31.7999698 513.017614,30.581083 C515.258054,28.1433094 516.798356,25.1722729 517.218439,21.8203343 C517.568508,18.4683957 517.218439,14.8879158 516.238246,11.6121576 C515.258054,8.26021895 513.717751,5.13682159 511.897394,2.2419655 C511.477311,1.63252212 511.617338,0.718357036 512.247462,0.261274496 C512.877586,-0.195808044 513.647737,-0.0434471977 514.06782,0.642176612 C516.028205,3.76557397 517.708535,7.1175126 518.758741,10.7741729 C519.808948,14.4308332 520.22903,18.3160348 519.878961,22.2012364 C519.66892,24.1819274 519.10881,26.1626184 518.268645,27.9147682 C517.42848,29.6669179 516.30826,31.2667068 515.048012,32.6379544 C513.857779,34.009202 512.527517,35.2280888 511.26727,36.4469756 C510.007022,37.5896819 508.816788,38.8847491 508.326692,40.1036359 C508.046637,40.7130793 507.976623,41.2463423 508.046637,41.8557856 C508.116651,42.465229 508.396706,43.1508528 508.746775,43.7602962 C508.956816,44.0650179 509.166857,44.44592 509.376898,44.7506417 L510.14705,45.8933481 C510.637146,46.6551523 511.127242,47.4169565 511.617338,48.1787608 C513.577724,51.2259777 515.398081,54.5017359 516.86837,57.929855 C517.568508,59.6820047 518.268645,61.4341544 518.758741,63.338665 C519.248838,65.2431756 519.598906,67.2238666 519.528893,69.3569185 C519.458879,71.4899703 518.968783,73.775383 517.708535,75.6798936 C516.448287,77.5844042 514.697944,78.9556518 512.877586,79.7936365 L512.807572,79.7936365 C511.687352,80.3268994 510.357091,79.7936365 509.796981,78.5747497 C509.306885,77.3558629 509.796981,75.9084349 510.917201,75.2989915 C511.057228,74.9942698 511.127242,74.9942698 511.127242,74.9942698 Z" id="Shape" fill="#EEEEEE" fill-rule="nonzero"></path>
                <path d="M382.799833,147.498033 C380.487437,145.642079 377.789642,144.09545 375.168928,142.780816 C373.85857,142.084834 372.471133,141.543514 371.083695,140.924863 C370.389977,140.615537 369.696258,140.383543 369.002539,140.151548 C368.308821,139.842223 367.538022,139.610229 366.844304,139.223572 C365.456866,138.527589 364.146509,137.52228 362.990311,136.439641 C361.834113,135.357001 360.909155,134.119698 359.984197,132.959727 C358.13428,130.639785 356.130204,128.474505 353.817809,126.54122 L352.122052,125.149254 L351.197094,124.37594 C350.888775,124.066615 350.657535,123.83462 350.349216,123.525295 C349.270098,122.365324 348.345139,121.05069 347.728501,119.581393 C347.111862,118.112096 346.726463,116.565468 346.495223,115.096171 C346.263983,113.626874 346.109824,112.080246 345.724425,110.68828 C345.339025,109.296315 344.645307,108.136344 343.489109,107.440361 C342.94955,107.053704 342.255831,106.82171 341.639192,106.589715 C340.945474,106.357721 340.251755,106.28039 339.480957,106.125727 C336.474842,105.661738 333.545808,104.811093 330.693854,103.728453 C324.989945,101.640505 319.671435,98.7792427 314.584165,95.5313234 C309.496895,92.283404 304.640864,88.726159 300.016073,84.8595884 C297.703677,82.8489717 295.468362,80.9930178 293.155966,79.0597325 L286.21878,73.2598765 L279.281593,67.4600206 L272.344407,61.737496 C271.959007,61.4281704 271.881927,60.8095191 272.190247,60.3455306 C272.498566,59.9588735 273.115205,59.8815421 273.577684,60.1908678 C282.596027,68.1560033 291.768529,75.966476 300.786872,83.8542801 C305.334583,87.7208507 310.190613,91.2780957 315.200804,94.526015 C320.288074,97.6966029 325.529504,100.557865 331.156333,102.568482 C333.931207,103.57379 336.860242,104.347104 339.712196,104.811093 C341.176713,105.043087 342.79539,105.352413 344.259907,106.203058 C344.953626,106.667047 345.570265,107.285698 346.032744,107.981681 C346.495223,108.677664 346.803542,109.450978 347.034782,110.224292 C347.497261,111.77092 347.574341,113.240217 347.88266,114.709514 C348.1139,116.178811 348.499299,117.570776 349.038858,118.88541 C349.655497,120.200044 350.426295,121.360015 351.428333,122.365324 C351.659573,122.597318 351.967892,122.829312 352.199132,123.061306 L353.04701,123.757289 L354.819847,125.149254 C357.209322,127.08254 359.367558,129.325151 361.294554,131.645093 C362.296592,132.805064 363.221551,133.965035 364.223589,134.970344 C365.225627,135.975652 366.381825,136.748966 367.692182,137.367618 C368.308821,137.676943 369.002539,137.908937 369.619178,138.218263 L371.777414,138.991577 L376.093886,140.460874 C379.02292,141.388851 381.874875,142.239497 384.958069,142.935479 C386.345506,143.244805 387.193384,144.559439 386.962145,145.951404 C386.653825,147.34337 385.343468,148.194015 383.95603,147.962021 C383.493551,147.88469 383.108152,147.730027 382.799833,147.498033 Z" id="Shape" fill="#EEEEEE" fill-rule="nonzero"></path>
                <path d="M882.823447,713.80624 C884.587789,714.279652 886.352131,714.910869 888.116473,715.620987 C889.880815,716.331106 891.568446,717.27793 893.256078,718.540363 C894.099894,719.17158 894.866999,719.9606 895.557393,720.907425 C895.864236,721.380837 896.247788,721.933152 896.47792,722.485466 C896.708051,723.03778 896.861472,723.432291 897.014893,723.984605 C897.628578,725.878254 897.93542,727.771904 898.318972,729.507749 C898.702525,731.243594 899.086077,732.900537 899.623051,734.241872 C900.236735,735.583207 901.00384,736.45113 902.077788,737.003444 C903.228446,737.555758 904.685946,737.63466 906.220156,737.555758 C906.603709,737.555758 906.987261,737.476856 907.370814,737.397954 C907.754366,737.319052 908.137919,737.24015 908.598182,737.161248 L909.902261,736.924542 C910.362524,736.84564 910.822787,736.766738 911.28305,736.687836 C914.965155,736.135521 918.64726,736.214423 922.252655,736.530032 C925.858049,736.84564 929.386733,737.555758 932.838707,738.186975 C936.29068,738.818191 939.742654,739.607212 943.041206,739.765016 C944.652127,739.843918 946.339759,739.686114 947.106864,738.975995 C947.490416,738.660387 947.720548,738.186975 947.873969,737.476856 C947.95068,737.161248 947.95068,736.766738 947.95068,736.293325 C947.95068,735.898815 947.95068,735.425403 947.95068,734.95199 C947.95068,731.401398 947.643837,727.850806 947.260285,724.221311 C946.876732,720.670719 946.416469,717.041224 945.956206,713.490632 C945.419232,709.703333 945.879496,705.758231 947.336995,702.207638 C948.794495,698.657046 951.249232,695.579866 954.394363,693.44951 C955.161469,692.897196 956.005284,692.423783 956.8491,692.029273 C957.692916,691.634763 958.536732,691.319155 959.380547,690.924644 C961.068179,690.293428 962.832521,689.662212 964.596863,689.346603 C966.437915,689.030995 968.355678,688.794289 970.350152,689.267701 C970.810415,689.425505 971.347389,689.583309 971.807652,689.820016 C972.037783,689.97782 972.267915,690.056722 972.498046,690.214526 C972.728178,690.37233 972.95831,690.530134 973.111731,690.687938 L975.182915,692.344881 C975.873309,692.897196 976.563704,693.370608 977.330809,693.922922 C978.021204,694.396335 978.86502,695.027551 979.478704,695.658768 L983.544362,699.20936 C984.081335,699.682772 984.158046,700.550695 983.697783,701.103009 C983.237519,701.655324 982.393704,701.734226 981.85673,701.260813 C980.552651,700.077283 979.248572,698.81485 977.944493,697.631319 C977.254099,697.000103 976.640415,696.52669 975.95002,696.053278 C975.259625,695.500964 974.49252,694.948649 973.802125,694.396335 L971.730941,692.739392 C971.50081,692.581588 971.424099,692.502685 971.270678,692.423783 C971.117257,692.344881 970.963836,692.265979 970.810415,692.187077 C970.503573,692.029273 970.196731,691.871469 969.813178,691.792567 C968.355678,691.398057 966.744757,691.555861 965.057126,691.871469 C963.446205,692.187077 961.758573,692.739392 960.224363,693.370608 C958.613442,694.001825 957.079232,694.633041 955.698442,695.658768 C952.936863,697.552417 950.788969,700.235087 949.48489,703.391169 C948.180811,706.547251 947.797259,710.018941 948.334232,713.41173 C948.871206,716.962322 949.331469,720.591817 949.791732,724.221311 C950.175285,727.850806 950.558837,731.4803 950.635548,735.188697 C950.635548,735.662109 950.635548,736.135521 950.635548,736.608934 C950.635548,737.082346 950.635548,737.63466 950.558837,738.186975 C950.405416,739.291603 949.868443,740.554036 948.871206,741.343057 C947.95068,742.210979 946.800022,742.526588 945.802785,742.763294 C944.805548,742.921098 943.808311,743 942.887785,743 C939.12897,742.842196 935.676996,742.132077 932.225023,741.658665 C928.773049,741.106351 925.321076,740.632938 921.869102,740.396232 C918.417129,740.238428 915.041866,740.31733 911.820024,740.948547 C911.436471,741.027449 910.976208,741.106351 910.592656,741.185253 L909.978971,741.343057 L909.288577,741.500861 C908.828314,741.579763 908.368051,741.658665 907.907787,741.737567 C907.447524,741.816469 906.987261,741.895371 906.450288,741.895371 C904.532524,742.053175 902.38463,742.053175 900.236735,741.106351 C899.162788,740.632938 898.165551,739.92282 897.398446,739.054897 C896.631341,738.186975 896.017657,737.24015 895.557393,736.214423 C894.636867,734.241872 894.253315,732.348223 893.793051,730.612378 C893.409499,728.79763 893.025946,727.140687 892.488973,725.562646 C892.335552,725.168136 892.182131,724.773626 892.10542,724.458017 C892.028709,724.221311 891.875288,723.984605 891.645157,723.747899 C891.261604,723.274487 890.801341,722.801074 890.187657,722.327662 C889.036999,721.459739 887.579499,720.670719 886.045289,720.118404 C884.511078,719.487188 882.900157,719.013776 881.289236,718.540363 C878.067395,717.672441 874.615421,717.120126 871.316869,716.725616 C869.859369,716.567812 868.862132,715.305379 869.015553,713.964044 C869.399106,712.543807 870.626474,711.51808 872.083974,711.675885 C875.766079,712.149297 879.294763,712.780513 882.823447,713.80624 Z" id="Shape" fill="#EEEEEE" fill-rule="nonzero"></path>
                <path d="M52.7840212,795.976737 C53.0884434,797.123321 53.4689713,798.422783 53.8494991,799.645806 C54.3061325,800.868829 54.7627659,802.091853 55.2955049,803.238437 C56.3609829,805.608044 57.5025664,807.901213 59.0246777,809.888626 C60.5467891,811.876038 62.2972171,813.634134 64.428173,814.780719 C64.6564897,814.933596 64.960912,815.010035 65.1892287,815.162913 C65.5697565,815.315791 66.0263899,815.545108 66.4069178,815.850864 C67.244079,816.462375 67.8529235,817.532521 68.0051347,818.449788 C68.1573458,819.367056 68.0812403,820.207884 67.9290291,820.972274 C67.776818,821.736663 67.5485013,822.424614 67.244079,823.112564 C66.1786011,825.787927 64.6564897,828.157535 63.0582728,830.374264 C62.2972171,831.520849 61.4600559,832.590994 60.6228946,833.661139 C59.7857334,834.731285 58.8724666,835.80143 58.1114109,836.795136 C56.5892996,838.858988 55.5238216,841.228596 54.6866604,843.751081 C53.9256047,846.273566 53.3928657,848.872491 53.0884434,851.547854 C52.7840212,854.146778 52.63181,856.822141 53.0123379,859.421066 C53.3928657,862.01999 54.230027,864.466037 55.8282439,866.529888 C57.3503552,868.59374 59.4813111,870.198958 61.6883726,871.727737 C62.7538505,872.492126 63.895434,873.256516 64.960912,874.326661 C66.0263899,875.320368 66.7874456,876.466952 67.5485013,877.689975 C70.4405128,882.352751 72.4192576,887.474161 74.4741079,892.442693 C76.4528527,897.487663 78.2032807,902.609073 79.9537088,907.730483 C80.1059199,908.265555 79.8776032,908.800628 79.3448642,908.953506 C78.8121253,909.106384 78.2793863,908.877067 78.1271752,908.341994 C76.6050638,903.220585 74.9307413,898.099175 73.0281021,893.054204 C72.1148353,890.531719 71.125463,888.009233 69.9838794,885.563187 C68.9184015,883.117141 67.7007124,880.747533 66.3308122,878.454365 C65.6458621,877.30778 64.8848064,876.237635 63.9715396,875.396807 C63.0582728,874.479539 61.9927948,873.71515 60.9273169,872.95076 C58.7202554,871.421981 56.4370884,869.816763 54.6866604,867.523595 C52.9362323,865.306865 51.8707544,862.555063 51.4902265,859.726822 C51.0335931,856.975019 51.1858043,854.146778 51.4902265,851.394976 C51.7946488,848.719613 52.2512822,845.96781 53.0123379,843.292447 C53.7733936,840.617084 54.9149771,838.01816 56.513194,835.648552 C57.3503552,834.425529 58.1114109,833.508261 58.9485721,832.361677 C59.7096278,831.291532 60.4706835,830.221387 61.2317392,829.074802 C62.677745,826.858073 63.9715396,824.564904 64.8087008,822.195297 C65.1892287,821.048712 65.4175454,819.825689 65.2653343,818.984861 C65.1892287,818.602666 65.0370175,818.373349 64.7325953,818.220471 C64.5803841,818.144032 64.428173,818.067593 64.1998563,817.991154 C63.8193285,817.838277 63.5149062,817.761838 63.1343784,817.532521 C60.3945779,816.309498 58.1114109,814.245646 56.2848773,812.105355 C54.4583437,809.888626 52.8601267,807.519018 51.5663321,805.072972 C50.881382,803.849949 50.2725375,802.550486 49.7397985,801.251024 C49.1309539,799.951562 48.598215,798.728539 48.1415816,797.276199 C47.6849482,795.976737 48.3698983,794.600835 49.6636929,794.142202 C50.9574876,793.683568 52.3273878,794.371519 52.7840212,795.670981 C52.7079156,795.823859 52.7840212,795.900298 52.7840212,795.976737 Z" id="Shape" fill="#EEEEEE" fill-rule="nonzero"></path>
                <path d="M76.5790179,418.323921 C75.8058369,416.95228 75.4192464,415.504437 75.1872921,414.056594 C74.9553377,412.608751 74.8780196,411.23711 74.8780196,409.865469 C74.8780196,407.122188 75.0326558,404.455108 75.0326558,401.788029 C75.0326558,399.197152 74.8007015,396.530073 73.9502024,394.0916 C73.5636119,392.872364 72.9450671,391.72933 72.2492042,390.586296 C72.094568,390.281487 71.8626137,390.05288 71.7079775,389.824273 C71.4760232,389.595667 71.321387,389.290857 71.0894327,389.062251 C70.6255241,388.528835 70.2389336,388.147823 69.775025,387.766812 C67.7647544,386.318969 65.0586209,385.404542 62.5071235,384.490115 C59.8783081,383.575687 57.1721746,382.737463 54.5433592,381.670631 C51.9145437,380.603799 49.2857283,379.384563 46.8888672,377.860518 C44.4920061,376.26027 42.2497812,374.355213 40.5487829,371.992943 C38.8477847,369.630673 37.6106951,366.963593 36.9148322,364.220312 C36.6055598,362.848671 36.2962874,361.400828 36.2189693,360.029187 C36.0643331,358.581344 36.0643331,357.133501 36.2189693,355.76186 C36.3736055,354.314017 36.6055598,353.018579 36.6828779,351.646938 C36.760196,350.351499 36.6055598,349.132263 36.1416512,347.913027 C35.7550607,346.693791 35.0591978,345.474554 34.2860168,344.483925 C33.5128358,343.493296 32.5077005,342.578868 31.5025652,341.740643 C27.1727515,338.463946 21.9924388,336.25408 16.812126,334.272821 C11.6318133,332.291562 6.29686434,330.615113 0.884597296,329.243472 C0.26605249,329.091067 -0.120538013,328.481449 0.0340981883,327.871831 C0.18873439,327.262213 0.807279195,326.881202 1.425824,327.033606 C1.425824,327.033606 1.425824,327.033606 1.5031421,327.033606 C6.91540915,328.633854 12.2503581,330.386506 17.5079889,332.520169 C20.1368044,333.587001 22.6883017,334.730035 25.239799,336.025473 C27.7912963,337.320912 30.2654756,338.692553 32.5077005,340.445205 C33.667472,341.359632 34.7499254,342.350262 35.6004245,343.569498 C36.4509236,344.788734 37.1467865,346.00797 37.6880132,347.455813 C38.2292399,348.827454 38.3838761,350.427702 38.306558,351.875545 C38.2292399,353.323388 37.9972856,354.695029 37.8426494,356.066669 C37.6880132,357.43831 37.6880132,358.733749 37.8426494,360.029187 C37.9972856,361.324626 38.2292399,362.696267 38.5385123,363.991705 C39.2343752,366.582582 40.3168286,369.021055 41.9405088,371.154718 C43.5641889,373.288382 45.5744595,375.041034 47.8940025,376.488877 C50.2135455,377.93672 52.6877248,379.079754 55.2392221,379.994181 C57.7907194,380.98481 60.4968529,381.746833 63.2029864,382.585058 C64.5173942,383.042272 65.90912,383.499485 67.2235277,384.032901 C68.5379354,384.566317 69.9296612,385.175935 71.1667508,386.090362 C71.7852956,386.547576 72.4038404,387.080992 72.867749,387.614408 C73.0997033,387.843014 73.4089757,388.147823 73.64093,388.452633 C73.8728843,388.757442 74.1048386,388.986048 74.3367929,389.290857 C75.2646102,390.433891 76.0377912,391.72933 76.7336541,393.024768 C78.0480618,395.691848 78.975879,398.587534 79.4397876,401.407018 C79.9036962,404.302704 80.0583324,407.122188 79.9810143,409.941672 C79.9810143,411.313312 79.9036962,412.684953 79.6717419,413.980392 C79.5171057,415.352032 79.2851514,416.647471 78.8985609,418.019112 L78.8985609,418.095314 C78.7439247,418.781134 78.0480618,419.162146 77.3521989,418.933539 C77.0429265,418.781134 76.7336541,418.62873 76.5790179,418.323921 Z" id="Shape" fill="#EEEEEE" fill-rule="nonzero"></path>
                <path d="M54.6616209,803.1439 C52.6083139,800.398128 49.8705712,796.813371 49.262184,793.304885 C47.1328285,781.7879 45.3837152,770.194642 55.8783954,760.889528 C57.9317024,759.059014 57.7796056,754.711542 58.5400897,751.508142 C59.908961,745.177614 59.528719,737.703014 62.8748489,732.669099 C69.2629152,723.058899 65.1563012,715.355485 60.7454935,707.652071 C57.5514604,702.084256 53.4448464,696.44017 48.4256515,692.70287 C43.0262145,688.736756 36.1058094,686.753699 29.6416948,684.389285 C22.9494349,681.948599 18.8428209,676.075699 22.1889508,670.355342 C28.9572591,658.762085 33.0638731,645.567127 43.6346018,636.262013 C49.5663776,631.075556 55.6502502,627.185713 63.4832362,625.812827 C72.6850935,624.134856 81.734854,621.922984 90.9367113,620.168741 C96.1840515,619.177213 98.3134069,616.278899 98.9217941,611.01617 C100.518811,597.66867 103.028408,584.397441 104.397279,571.049941 C104.85357,566.092298 103.104457,560.905841 102.343972,555.871927 C101.887682,552.897341 99.9104234,549.236312 100.975101,547.024441 C105.233812,538.482041 100.442762,531.541341 98.0092133,524.219284 C95.2714706,516.134512 91.7732438,508.278555 89.2636464,500.041241 C83.6360642,481.812369 79.9096922,463.278412 80.0617891,443.98174 C80.1378375,435.43934 77.8563852,426.89694 76.7156591,418.278269 C76.4875139,416.295212 76.7156591,414.312155 76.7156591,412.48164 C81.2025152,412.48164 85.3091292,411.94774 89.187598,412.634183 C92.6858247,413.244355 96.0319547,415.074869 100.214617,416.75284 C104.245183,409.507055 110.709297,410.956212 118.618332,411.41384 C128.276479,412.024012 136.413659,413.930797 144.855032,418.430812 C152.383825,422.473197 160.368908,423.083369 167.517458,415.379955 C171.548023,411.032483 177.555848,408.515526 183.563672,404.625683 C184.248108,408.74434 184.62835,411.337569 185.008592,413.778255 C197.860772,414.846055 202.956016,409.354512 200.674564,397.684983 C199.001499,389.066312 205.313516,381.51544 213.222551,384.642569 C223.565134,388.684954 230.029249,383.879854 234.28796,376.786611 C240.752074,366.03234 251.626997,366.718783 261.056999,364.049283 C267.445065,362.29504 271.399583,368.244211 268.737888,374.57474 C267.369017,377.930683 263.186355,381.744254 267.521114,384.566297 C271.247486,387.006983 276.646923,388.45614 280.981682,387.845969 C290.563781,386.625626 295.659025,380.44764 294.974589,373.125583 C294.594347,368.778111 285.772732,358.710283 281.285876,357.413668 C279.080472,356.803497 276.79902,356.269597 273.072648,355.278068 C279.384665,342.311926 285.316441,330.26104 291.172169,318.057611 C292.160798,315.998283 293.225476,313.71014 293.377572,311.498268 C293.833863,302.269425 293.301524,292.88804 294.44225,283.735468 C295.506928,274.354082 302.427333,267.947282 308.967496,261.769296 C310.260319,260.548954 312.845965,260.167596 314.823223,260.167596 C329.728711,260.015054 338.550327,253.913339 343.113231,240.260754 C346.611458,229.735296 347.295894,229.735296 358.398961,230.803096 C364.406785,231.336996 370.642755,230.498011 376.650579,229.506482 C378.932031,229.125125 381.517677,226.913253 382.886548,224.777653 C385.320097,221.040353 386.384775,216.311525 389.122518,212.955582 C391.632115,209.904725 395.586632,208.150482 399.769295,205.252168 C391.86026,193.735182 379.692515,196.252139 370.338561,195.413153 C371.099045,187.25211 371.022997,180.158867 372.543965,173.37071 C374.825417,163.302882 380.529048,154.15031 381.213483,143.47231 C381.289532,142.785867 385.396146,141.489253 387.449453,141.87061 C396.575262,143.47231 401.89865,139.582467 405.092683,131.345153 C408.59091,122.345124 416.499944,119.904439 425.017366,118.607824 C426.538334,118.37901 428.819786,118.91291 429.808416,119.904439 C438.858176,129.438367 451.330115,124.78581 461.900844,127.912939 C466.996087,129.362096 470.266169,125.701067 471.406895,120.590881 C472.015282,117.921381 472.015282,115.023067 472.851815,112.429838 C474.068589,108.921353 474.98117,104.802696 477.414719,102.285738 C483.270446,96.1840241 489.886658,90.8450241 496.122627,85.1246669 C497.643595,83.7517812 499.620854,82.3788954 500.229241,80.6246526 C502.890936,72.692424 510.876018,73.760224 516.427552,71.0907239 C517.872472,70.4042811 522.283279,73.760224 524.108441,76.2009097 C529.583927,83.5229669 533.006105,84.6670383 541.37143,81.0060097 C543.881027,79.8619383 546.466673,78.7941383 549.128367,78.031424 C556.65716,75.9720954 559.470951,77.4212526 562.817081,84.7433097 C564.109904,87.5653526 565.174581,90.4636669 566.467404,93.3619812 C569.585389,100.455224 578.102811,102.285738 584.110635,97.0992812 C586.087894,95.4213098 587.989104,93.7433384 590.118459,92.1416384 C599.472413,85.1246669 599.320316,85.2009383 608.21798,91.4551955 C611.412013,93.7433384 615.670724,94.5823241 619.549193,95.8026669 C631.716938,99.6162384 632.629519,101.217938 629.131292,113.345096 C628.142663,116.701038 627.30613,120.056981 626.773792,123.489196 C625.633065,131.116339 629.815728,138.819753 637.192423,140.26891 C640.386457,140.879081 645.329603,138.590939 647.687104,135.99771 C655.900332,127.073953 655.596138,126.845139 665.254286,128.751924 C671.718401,124.099367 677.345983,119.904439 683.277758,116.090867 C684.722678,115.17561 687.99276,114.870524 688.905341,115.862053 C695.14131,122.192581 700.160505,117.540024 705.864136,113.878996 C713.240831,123.565467 726.777448,120.819696 734.990676,131.268881 C741.530839,139.506196 746.930276,149.497753 758.033343,155.599467 C758.109392,155.523196 759.858505,154.607939 761.759715,154.15031 C764.193264,153.540139 767.083104,152.319796 769.136411,153.158782 C770.505282,153.692682 771.265766,157.35371 771.113669,159.48931 C770.505282,167.955439 766.931007,176.04021 768.908265,184.963967 C769.440604,187.328382 765.866329,190.760596 763.889071,193.582639 C760.999231,197.777568 760.618989,201.514868 764.193264,205.786068 C775.752622,219.591196 776.741251,222.184425 779.098752,240.718382 C775.296332,243.159068 771.417863,246.133654 772.938831,251.930282 C773.090928,252.616725 772.178347,254.218425 771.493911,254.447239 C760.771086,257.955725 763.813022,268.938811 759.934553,276.108325 C757.957295,279.693082 759.934553,283.049025 763.584877,285.794797 C770.353185,290.75244 778.946655,293.803297 782.06464,303.03214 C782.52093,304.328754 786.247302,304.786382 788.528755,305.16774 C792.10303,305.777911 795.753353,305.930454 801.609081,306.464354 C797.502467,315.235568 794.156337,322.25254 790.65811,329.72714 C792.179078,331.100025 793.471901,333.235625 795.144966,333.693254 C806.856421,336.972926 810.73489,346.583126 811.495374,356.574683 C812.940293,375.64254 827.389491,382.125611 840.850059,389.676483 C849.443529,394.481583 858.721435,398.06634 867.847244,402.261269 C866.782566,413.473169 867.238857,424.22744 861.002887,433.83764 C858.341193,437.956298 860.242403,441.617326 864.805308,442.532583 C870.128696,443.600383 876.592811,445.58344 880.851522,443.600383 C892.030637,438.337655 901.688785,441.998683 911.575078,445.888526 C917.582902,448.176669 923.362581,450.92244 929.218309,453.515669 C923.362581,467.778426 925.567985,474.414041 939.332747,483.414069 C944.42799,486.770012 949.67533,489.973412 954.846622,493.253084 C959.637672,496.227669 958.801139,506.905669 953.477751,510.032798 C951.12025,511.405684 948.382508,512.244669 946.101055,513.693827 C941.08186,516.973498 937.659682,520.863341 934.389601,526.659969 C927.469195,539.244755 916.518225,550.914284 902.297172,553.812598 C891.574347,556.02447 878.113779,556.177013 870.661035,542.67697 C867.010711,536.041355 858.113048,534.744741 850.508207,536.727798 C845.336915,538.100684 839.785381,538.024412 833.701509,538.710855 C827.617636,547.634612 829.214653,561.439741 817.122956,568.380441 C825.640378,578.143184 833.62546,587.295756 841.610543,596.448327 C842.294979,597.211041 843.891995,597.973756 843.815947,598.355113 C841.76264,605.372084 848.4549,607.660227 851.572885,612.61787 C846.477641,622.914513 848.074658,632.982342 854.538772,642.51627 C855.375305,643.736613 855.755547,646.177299 855.14716,647.397642 C851.496836,654.109527 854.538772,660.058699 856.592079,666.236685 C857.580709,669.134999 859.025629,672.643485 858.265144,675.312985 C855.375305,684.999456 860.014258,690.414728 868.075389,694.30457 C867.999341,699.185942 866.706518,704.219856 873.094584,706.507999 C874.691601,707.118171 875.147891,711.008013 877.12515,715.813113 C867.314905,714.897856 859.634016,714.363956 852.029175,713.524971 C836.819493,711.770728 835.222477,712.533442 827.541588,726.948742 C825.184087,726.109756 822.446344,725.652128 820.316989,724.202971 C815.601988,720.999571 811.19118,721.152113 805.715695,722.219913 C797.654564,723.821614 792.863514,726.719928 789.669481,735.186056 C787.007786,742.279299 780.239478,747.770842 775.37238,754.101371 C772.406492,757.914942 768.756169,761.575971 767.007055,765.847171 C762.292054,777.364157 758.261488,789.186228 754.306971,801.0083 C753.39439,803.754071 753.39439,807.338828 754.306971,810.008328 C757.501004,819.008357 761.151328,827.932114 765.105845,836.627057 C767.463346,841.737243 767.463346,845.779629 763.052538,849.5932 C760.999231,851.347443 759.402215,853.635586 757.272859,856 C753.470439,854.169486 750.200357,852.338971 746.70213,851.118629 C742.519468,849.669471 741.074548,846.847429 740.314064,842.6525 C737.576322,827.1694 724.876237,817.5592 709.818653,820.2287 C702.518006,821.525314 695.445504,824.423628 688.677195,827.550757 C683.658001,829.8389 680.387919,829.381271 677.041789,825.186343 C671.794449,818.703271 668.980658,818.245643 662.66864,822.974471 C657.801542,826.6355 653.238637,830.830428 646.850571,836.169428 C643.276296,837.160957 637.192423,838.9152 629.663631,841.0508 C627.762421,831.211786 625.709114,821.677857 624.188146,811.991385 C623.50371,807.262557 624.720485,802.152371 618.484515,800.093043 C612.704836,798.186257 608.674271,799.330328 605.252092,804.669328 C603.959269,806.728657 600.232897,808.177814 597.647251,808.177814 C587.000474,808.254085 582.285473,811.1524 577.722569,820.915143 C576.125552,824.271086 573.539906,827.1694 571.334502,830.220257 C569.509341,829.686357 569.509341,829.686357 567.684179,829.152457 C567.379985,823.813457 567.075792,818.550728 566.771598,813.364271 C562.056597,812.296471 557.569741,810.6185 552.930788,810.313414 C548.291835,810.008328 543.576834,811.076128 538.101348,811.610028 C533.994734,806.728657 526.313845,803.296443 527.834813,793.609971 C516.199407,794.143871 513.233519,805.584585 505.096339,809.169343 C500.76158,808.025271 496.578918,806.957471 492.472304,805.737128 C482.662059,802.838814 482.205769,803.296443 478.78359,813.059185 C477.642864,816.415128 474.98117,819.389714 472.623669,822.135486 C472.015282,822.821928 469.73383,822.059214 467.984716,821.906671 C474.753025,806.271028 474.829073,805.965943 458.934956,800.245585 C454.752294,798.720157 449.809147,799.482871 445.170194,799.559143 C442.812694,799.559143 440.455193,800.398128 438.021644,800.703214 C429.428174,801.771014 420.682607,795.364214 418.933494,786.974357 C418.096961,783.084514 417.792767,776.9828 415.511315,775.991271 C410.720265,774.008214 403.723812,772.635328 399.54115,774.770928 C388.590179,780.338742 380.224854,774.618385 371.479287,770.499728 C365.319366,767.601414 359.843881,765.084457 352.847427,768.059042 C350.642023,768.974299 345.698877,768.211585 344.634199,766.533614 C340.375488,759.821728 333.302986,760.965799 327.447259,758.830199 C322.047822,756.847142 316.724434,754.711542 311.401045,752.575942 C307.598625,751.126785 303.948301,749.067457 299.993784,748.228471 C292.99733,746.779314 285.84878,745.940328 278.776278,744.948799 C277.483455,744.796256 275.734342,744.414899 274.821761,745.101342 C267.673211,750.592885 260.372564,747.694571 252.995868,746.016599 C249.649738,745.253885 246.075463,745.482699 242.729333,744.796256 C239.459251,744.109814 235.808928,743.499642 233.223282,741.592856 C223.260941,734.194528 213.450696,734.957242 203.336258,741.058956 C200.978757,742.431842 198.317063,744.338628 195.807465,744.262356 C183.943914,743.728456 172.080362,742.584385 160.216811,741.745399 C152.992212,741.287771 145.767613,740.601328 138.543015,740.982685 C136.413659,741.135228 133.675916,744.338628 132.687287,746.703042 C131.242367,750.135257 131.090271,754.101371 130.481883,757.914942 C128.200431,770.575999 120.291397,778.813314 109.568571,784.686214 C106.222441,786.516728 102.724215,787.965885 99.2259878,789.567585 C91.240905,793.228614 91.240905,793.228614 85.7654196,785.677742 C80.8222731,778.889585 61.582026,776.525171 56.9430731,782.931971 C54.5855725,786.211642 55.1939598,791.855728 54.8897661,796.508285 L54.6616209,803.1439 Z" id="Shape" stroke="#EEEEEE" stroke-width="2" fill="#F7F7F7" stroke-linecap="round" stroke-linejoin="round"></path>
                <circle id="Oval-2-Copy-3" fill="#FF9963" cx="426.5" cy="506.5" r="14.5"></circle>
                <circle id="Oval-2-Copy-19" fill="#FF9963" cx="562.5" cy="524.5" r="14.5"></circle>
                <circle id="Oval-2-Copy-14" fill="#FF9963" cx="459.5" cy="474.5" r="7.5"></circle>
                <circle id="Oval-2-Copy-24" fill="#FF9963" cx="515.5" cy="460.5" r="7.5"></circle>
                <circle id="Oval-2-Copy-26" fill="#FF9963" cx="459.5" cy="405.5" r="7.5"></circle>
                <circle id="Oval-2-Copy-27" fill="#FF9963" cx="478.5" cy="390.5" r="7.5"></circle>
                <circle id="Oval-2-Copy-20" fill="#FF9963" cx="555.5" cy="427.5" r="7.5"></circle>
                <circle id="Oval-2-Copy-21" fill="#FF9963" cx="484.5" cy="332.5" r="7.5"></circle>
                <circle id="Oval-2-Copy-22" fill="#FF9963" cx="405.5" cy="380.5" r="7.5"></circle>
                <circle id="Oval-2-Copy-15" fill="#FF9963" cx="504.5" cy="498.5" r="10.5"></circle>
                <circle id="Oval-2-Copy-25" fill="#FF9963" cx="519.5" cy="383.5" r="10.5"></circle>
                <circle id="Oval-2-Copy-18" fill="#FF9963" cx="537.5" cy="601.5" r="10.5"></circle>
                <circle id="Oval-2-Copy-28" fill="#FF9963" cx="369.5" cy="597.5" r="10.5"></circle>
                <circle id="Oval-2-Copy-17" fill="#FF9963" cx="622.5" cy="379.5" r="10.5"></circle>
                <circle id="Oval-2-Copy-31" fill="#FF9963" cx="566.5" cy="332.5" r="10.5"></circle>
                <circle id="Oval-2-Copy-16" fill="#FF9963" cx="498.5" cy="426.5" r="21.5"></circle>
                <circle id="Oval-2-Copy-29" fill="#FF9963" cx="677.5" cy="633.5" r="21.5"></circle>
                <circle id="Oval-2-Copy-30" fill="#FF9963" cx="577.5" cy="263.5" r="21.5"></circle>
                <circle id="Oval-2-Copy-23" fill="#FF9963" cx="331.5" cy="461.5" r="21.5"></circle>
            </g>
        </g>
    </g>
</svg>